<?xml version="1.0" standalone="no"?>
<!DOCTYPE svg PUBLIC "-//W3C//DTD SVG 20010904//EN"
 "http://www.w3.org/TR/2001/REC-SVG-20010904/DTD/svg10.dtd">
<svg version="1.0" xmlns="http://www.w3.org/2000/svg"
 width="700.000000pt" height="700.000000pt" viewBox="0 0 700.000000 700.000000"
 preserveAspectRatio="xMidYMid meet">
<metadata>
Created by potrace 1.11, written by Peter Selinger 2001-2013
</metadata>
<g transform="translate(0.000000,700.000000) scale(0.100000,-0.100000)"
fill="#000000" stroke="none">
<path d="M3295 6704 c-339 -18 -592 -47 -850 -99 -1125 -227 -1866 -826 -2085
-1686 -19 -72 -20 -111 -20 -546 0 -466 0 -468 25 -560 208 -778 844 -1343
1806 -1603 980 -264 2213 -210 3064 137 351 142 638 326 871 558 262 260 436
558 529 908 25 92 25 94 25 561 0 389 -3 478 -15 530 -52 206 -160 452 -272
621 -440 665 -1306 1079 -2433 1165 -150 11 -537 20 -645 14z m715 -1188 c377
-48 660 -124 915 -247 137 -65 245 -139 344 -234 126 -121 189 -221 238 -382
25 -82 27 -101 27 -273 1 -197 -6 -243 -58 -372 -39 -95 -86 -166 -173 -258
-255 -269 -686 -439 -1308 -517 -200 -25 -790 -25 -990 0 -622 78 -1053 248
-1308 517 -113 120 -170 220 -212 376 -23 81 -31 322 -16 420 57 349 300 607
738 782 266 106 563 169 973 206 112 10 710 -3 830 -18z"/>
<path d="M1412 1747 c-5 -7 -150 -292 -321 -634 l-311 -623 388 -194 388 -194
318 635 c174 349 316 636 314 638 -2 2 -175 89 -385 193 -285 143 -384 188
-391 179z"/>
<path d="M5195 1568 c-209 -105 -381 -191 -383 -193 -2 -2 140 -289 314 -638
l318 -635 388 194 388 194 -315 629 c-173 346 -318 631 -322 634 -4 3 -179
-81 -388 -185z"/>
</g>
</svg>
